<!--?xml version="1.0" encoding="utf-8"?-->
<!-- Generator: Adobe Illustrator 15.1.0, SVG Export Plug-In . SVG Version: 6.00 Build 0)  -->

<svg version="1.1" id="_x32_" xmlns="http://www.w3.org/2000/svg" xmlns:xlink="http://www.w3.org/1999/xlink" x="0px" y="0px" width="512px" height="512px" viewBox="0 0 512 512" style="width: 256px; height: 256px; opacity: 1;" xml:space="preserve">
<style type="text/css">

	.st0{fill:#4B4B4B;}

</style>
<g>
	<path class="st0" d="M358.938,0H153.078c-19.734,0-35.875,16.141-35.875,35.859v440.266c0,19.734,16.141,35.875,35.875,35.875
		h205.859c19.719,0,35.859-16.141,35.859-35.875V35.859C394.797,16.141,378.656,0,358.938,0z M229.844,22.156h52.297
		c1.656,0,2.984,1.344,2.984,3s-1.328,2.969-2.984,2.969h-52.297c-1.656,0-3-1.313-3-2.969S228.188,22.156,229.844,22.156z
		 M256.016,490.328c-8.922,0-16.203-7.25-16.203-16.188s7.281-16.156,16.203-16.156s16.141,7.219,16.141,16.156
		S264.938,490.328,256.016,490.328z M358.938,429.75H153.078V56.547h205.859V429.75z" style="fill: rgb(75, 75, 75);"></path>
</g>
</svg>
